<svg xmlns="http://www.w3.org/2000/svg" viewBox="0 0 24 24" fill="currentColor" aria-hidden="true">

  <!-- Wrench body -->
  <path d="M3 20 L13 8" stroke="currentColor" stroke-width="3.5" stroke-linecap="round" fill="none"/>
  <!-- Wrench open head C-shape top -->
  <path d="M12 7 C12 4 15 3 17.5 4.5 C15.5 4.5 14 6 14 8 C14 10 15.5 11.5 17.5 11.5 C15 13 12 12 12 9 Z" fill="currentColor"/>
  <!-- Head solid block -->
  <path d="M13 7.5 L19 5 L21 9 L15 12 Z" fill="currentColor"/>
  <!-- Pipe drop accent -->
  <path d="M5 19 C5 19 3.5 22 3.5 23.5 C3.5 24.9 4.1 26 5 26 C5.9 26 6.5 24.9 6.5 23.5 C6.5 22 5 19 5 19Z" fill="#D97706"/>
</svg>